# Low-poly Mart Survival asset: Checkout
mtllib Checkout.mtl
o Checkout
v -1.2000 -0.5500 0.0000
v 1.2000 -0.5500 0.0000
v 1.2000 0.5500 0.0000
v -1.2000 0.5500 0.0000
v -1.2000 -0.5500 1.3000
v 1.2000 -0.5500 1.3000
v 1.2000 0.5500 1.3000
v -1.2000 0.5500 1.3000
v 0.3000 -0.3500 1.2250
v 1.0000 -0.3500 1.2250
v 1.0000 0.3500 1.2250
v 0.3000 0.3500 1.2250
v 0.3000 -0.3500 1.4750
v 1.0000 -0.3500 1.4750
v 1.0000 0.3500 1.4750
v 0.3000 0.3500 1.4750
v -0.7500 -0.1750 0.8750
v -0.3500 -0.1750 0.8750
v -0.3500 0.1750 0.8750
v -0.7500 0.1750 0.8750
v -0.7500 -0.1750 1.1250
v -0.3500 -0.1750 1.1250
v -0.3500 0.1750 1.1250
v -0.7500 0.1750 1.1250
v 0.6750 -0.2000 0.5500
v 0.9250 -0.2000 0.5500
v 0.9250 0.2000 0.5500
v 0.6750 0.2000 0.5500
v 0.6750 -0.2000 1.0500
v 0.9250 -0.2000 1.0500
v 0.9250 0.2000 1.0500
v 0.6750 0.2000 1.0500
f 1 2 3 4
f 5 8 7 6
f 1 5 6 2
f 2 6 7 3
f 3 7 8 4
f 5 1 4 8
f 9 10 11 12
f 13 16 15 14
f 9 13 14 10
f 10 14 15 11
f 11 15 16 12
f 13 9 12 16
f 17 18 19 20
f 21 24 23 22
f 17 21 22 18
f 18 22 23 19
f 19 23 24 20
f 21 17 20 24
f 25 26 27 28
f 29 32 31 30
f 25 29 30 26
f 26 30 31 27
f 27 31 32 28
f 29 25 28 32
