# Low-poly Mart Survival asset: ShoppingCart
mtllib ShoppingCart.mtl
o ShoppingCart
v -0.9000 -0.5000 0.7900
v 0.9000 -0.5000 0.7900
v 0.9000 0.5000 0.7900
v -0.9000 0.5000 0.7900
v -0.9000 -0.5000 0.9100
v 0.9000 -0.5000 0.9100
v 0.9000 0.5000 0.9100
v -0.9000 0.5000 0.9100
v -0.9000 0.3600 0.8750
v 0.9000 0.3600 0.8750
v 0.9000 0.4800 0.8750
v -0.9000 0.4800 0.8750
v -0.9000 0.3600 1.1250
v 0.9000 0.3600 1.1250
v 0.9000 0.4800 1.1250
v -0.9000 0.4800 1.1250
v -0.8600 -0.0600 0.0500
v -0.7400 -0.0600 0.0500
v -0.7400 0.0600 0.0500
v -0.8600 0.0600 0.0500
v -0.8600 -0.0600 0.8500
v -0.7400 -0.0600 0.8500
v -0.7400 0.0600 0.8500
v -0.8600 0.0600 0.8500
v 0.7400 -0.0600 0.0500
v 0.8600 -0.0600 0.0500
v 0.8600 0.0600 0.0500
v 0.7400 0.0600 0.0500
v 0.7400 -0.0600 0.8500
v 0.8600 -0.0600 0.8500
v 0.8600 0.0600 0.8500
v 0.7400 0.0600 0.8500
v -0.8600 -0.4100 0.0500
v -0.7400 -0.4100 0.0500
v -0.7400 -0.2900 0.0500
v -0.8600 -0.2900 0.0500
v -0.8600 -0.4100 0.8500
v -0.7400 -0.4100 0.8500
v -0.7400 -0.2900 0.8500
v -0.8600 -0.2900 0.8500
v 0.7400 -0.4100 0.0500
v 0.8600 -0.4100 0.0500
v 0.8600 -0.2900 0.0500
v 0.7400 -0.2900 0.0500
v 0.7400 -0.4100 0.8500
v 0.8600 -0.4100 0.8500
v 0.8600 -0.2900 0.8500
v 0.7400 -0.2900 0.8500
v -0.7900 -0.4400 0.0100
v -0.5100 -0.4400 0.0100
v -0.5100 -0.1600 0.0100
v -0.7900 -0.1600 0.0100
v -0.7900 -0.4400 0.2900
v -0.5100 -0.4400 0.2900
v -0.5100 -0.1600 0.2900
v -0.7900 -0.1600 0.2900
v 0.5100 -0.4400 0.0100
v 0.7900 -0.4400 0.0100
v 0.7900 -0.1600 0.0100
v 0.5100 -0.1600 0.0100
v 0.5100 -0.4400 0.2900
v 0.7900 -0.4400 0.2900
v 0.7900 -0.1600 0.2900
v 0.5100 -0.1600 0.2900
f 1 2 3 4
f 5 8 7 6
f 1 5 6 2
f 2 6 7 3
f 3 7 8 4
f 5 1 4 8
f 9 10 11 12
f 13 16 15 14
f 9 13 14 10
f 10 14 15 11
f 11 15 16 12
f 13 9 12 16
f 17 18 19 20
f 21 24 23 22
f 17 21 22 18
f 18 22 23 19
f 19 23 24 20
f 21 17 20 24
f 25 26 27 28
f 29 32 31 30
f 25 29 30 26
f 26 30 31 27
f 27 31 32 28
f 29 25 28 32
f 33 34 35 36
f 37 40 39 38
f 33 37 38 34
f 34 38 39 35
f 35 39 40 36
f 37 33 36 40
f 41 42 43 44
f 45 48 47 46
f 41 45 46 42
f 42 46 47 43
f 43 47 48 44
f 45 41 44 48
f 49 50 51 52
f 53 56 55 54
f 49 53 54 50
f 50 54 55 51
f 51 55 56 52
f 53 49 52 56
f 57 58 59 60
f 61 64 63 62
f 57 61 62 58
f 58 62 63 59
f 59 63 64 60
f 61 57 60 64
